<svg version="1.2" xmlns="http://www.w3.org/2000/svg" viewBox="0 0 1024 1024" width="33" height="33">
	<title>Crediton_Heritage_Logo3</title>
	<style>
		.s0 { fill: #1b3a25 } 
	</style>
	<g id="Background">
		<path id="Path 0" fill-rule="evenodd" class="s0" d="m462.5 118.6c-3.9 0.8-8.5 1.7-10.3 2.2-1.9 0.4-3.4 1.3-3.5 2.1-0.1 0.8 0.5 1.7 1.3 2.2 0.8 0.4 2.7 1 4.3 1.3 2 0.4 3.1 1.6 4.2 4.4 0.9 2 2.2 8.4 3.1 14.2 0.8 5.8 1.4 11.7 1.2 13.2-0.3 2.5-1.3 1.8-16.8-12.3-9.1-8.3-17.9-16.2-19.5-17.5l-3-2.4c-15.4 2.7-20.5 3.9-21.3 4.5-1.2 0.9-1.2 1.2 0.2 2.8 0.9 0.9 2.5 1.7 3.6 1.7 1.1 0 2.8 0.4 3.8 0.9 0.9 0.4 2.3 2.1 2.9 3.7 0.7 1.6 2.8 12.5 4.8 24.2 1.9 11.6 3.2 22 2.9 23-0.4 0.9-1.9 3.2-3.3 5-2 2.7-2.3 3.6-1.4 4.5 1 0.9 2.6 0.8 7-0.5 3.2-0.9 7.8-2 10.3-2.3 2.5-0.3 5.2-1 6-1.5 0.9-0.5 1.2-1.4 0.8-2.4-0.5-0.9-1.7-1.6-2.8-1.6-1.1 0-2.9-0.5-4-1-1.1-0.6-2.6-2.2-3.4-3.7-0.8-1.6-2.6-10-4.1-18.8-1.4-8.8-2.5-16.8-2.3-17.7 0.2-1.2 6.5 3.8 22.3 17.8 12.1 10.7 23.3 20.2 25 21 2.2 1.1 3.3 1.2 4 0.4 0.7-0.7-0.2-9.6-2.8-27.3-2.1-14.4-3.7-27.6-3.7-29.2 0.1-2.2 1.1-3.9 3.8-6.2 2.6-2.3 3.5-3.7 3-4.8-0.5-0.8-1.8-1.4-3-1.4-1.3 0.1-5.5 0.8-9.3 1.5zm428.5 301.2c0 1.5-0.6 3.6-1.3 4.7-0.8 1.1-7 6.2-13.8 11.4-6.8 5.2-14.2 10.2-16.4 11.2-2.2 0.9-7.6 2.3-12 3l-8 1.2c-6.1-7.5-6.5-7.6-7.1-5.8-0.4 1.1 0 7.7 0.9 14.8 0.9 7 2.2 13.7 2.8 15 0.9 1.8 1.3 2 2.2 0.9 0.7-0.8 1.4-3 1.7-5l0.5-3.7c15.5-2.7 21.9-3.3 24.3-3 2.3 0.3 9.5 2.8 15.9 5.6 6.5 2.8 13.1 6 14.8 7.1 1.6 1.2 4.2 3.3 5.8 4.7 1.8 1.7 3 2.3 3.7 1.6 0.6-0.6 0.4-4.4-0.6-10.5-0.9-5.2-2.1-10.1-2.8-10.8-0.6-0.7-1.4-1.3-1.9-1.2-0.4 0-1.1 1.2-1.7 2.8-0.5 1.5-1.6 3-2.5 3.5-0.8 0.4-3.7-0.2-6.8-1.4-2.8-1.1-7.3-3.2-10-4.5-2.6-1.3-4.7-2.9-4.7-3.4 0-0.6 4.3-4.3 9.5-8.2l9.6-7.3c4.4 4.5 5.2 4.8 6.2 3.7 0.9-1 0.8-3.3-0.6-11.5-0.9-5.6-2.2-11.9-2.7-13.9-0.7-2.8-1.5-3.8-3-3.8-1.5 0-2 0.7-2 2.8zm-760.5 17.7c-0.6 0.2-3.5 0.6-6.5 1l-5.5 0.6c-5.1 19.2-5.6 22.9-5.3 28.4 0.3 5.3 1.2 8.3 3.4 12.4 1.6 2.9 4.7 7 6.9 8.9 2.2 2 6.5 4.7 9.5 6.1 4.8 2.3 6.8 2.6 16 2.6 9.1-0.1 11.1-0.4 15.5-2.5 2.7-1.4 6.7-4.3 9-6.5 2.2-2.3 5.1-6.3 6.5-9 2.2-4.4 2.5-6.3 2.4-15.5 0-8.7-0.3-11.2-2.1-14.5-1.1-2.2-2.7-4.5-3.4-5.2-0.8-0.7-3.9-1.7-6.9-2.2-3-0.6-5.7-0.9-6-0.6-0.3 0.2 0.8 2.1 2.5 4.1 1.6 1.9 4.2 5.4 5.8 7.7 2 3.1 2.7 5.4 2.7 9 0 2.6-0.8 6.4-1.9 8.5-1 2-3.7 4.9-6 6.5-2.2 1.5-6.9 3.4-10.4 4.3-4.3 1.1-8 1.4-12.2 1-3.3-0.4-8.4-1.8-11.3-3.1-3.9-1.9-6-3.7-8.2-7.2-1.7-2.7-3.3-6.8-3.6-9.3-0.5-3.7-0.1-5.5 2.3-10 2.1-4.1 4.2-6.4 8.3-9.2 3-2 5.5-4.2 5.5-5 0-0.7-1.3-1.4-3-1.5-1.7-0.1-3.5 0-4 0.2zm383.5 401.5c-6.3 0.4-11.8 0.8-12.3 0.9-0.4 0-0.7 0.7-0.7 1.4 0 0.6 1.2 1.9 2.7 2.8 2.5 1.5 2.9 2.4 3.6 9.5 0.4 4.4 1 16.2 1.3 26.4l0.7 18.5c-6.3 5-6.6 5.6-5.3 6.5 1 0.7 4.8 0.9 10.5 0.6 4.9-0.4 15.4-0.9 23.1-1.4l14.2-0.7c0.9-7.7 1.2-11.7 1.2-13.7 0-2.1-0.5-4-1-4.3-0.6-0.3-1.8 0.7-2.8 2.1-0.9 1.4-3.1 4.2-4.7 6.1-2.8 3.3-3.5 3.6-10.5 4.1-6.7 0.5-7.6 0.3-8.6-1.4-0.6-1-1.4-6.5-1.8-12.1l-0.6-10.3c8.9 0 12.6 0.4 13.8 0.8 1.3 0.4 3.2 2.2 4.3 4 1 1.7 2.7 3.2 3.6 3.2 1.6 0 1.7-0.5 1-4.2-0.4-2.4-1.1-7.4-1.5-11.2-0.4-3.7-1-7-1.5-7.2-0.4-0.2-1.6 1.1-2.6 2.9-1.1 1.7-3 3.5-4.3 3.9-1.2 0.4-4.6 1-7.3 1.4l-5 0.6c-1.1-8.3-1.5-13.6-1.5-17.2v-6.5c15.8 1 16 1.1 20.4 5.5 3.7 3.6 4.8 4.3 5.8 3.2 1.1-1 1-2.5-0.2-8l-1.6-6.7c-16.2-0.1-26.1 0.1-32.4 0.5zm21-719.4c-2.5 0.8-6.8 3.1-9.5 5.2-2.8 2.1-6.7 6.3-8.7 9.3-2.6 3.6-4.1 7.4-4.9 11.4-0.6 3.3-0.8 8.7-0.5 12 0.4 3.3 1.9 8.5 3.4 11.5 1.4 3 4.4 7.3 6.7 9.5 2.2 2.3 6.9 5.5 10.5 7.3 4.4 2.1 8.6 3.3 13 3.7 3.6 0.3 9.2 0.2 12.4-0.2 4.6-0.6 6.3-1.4 7.7-3.3 1-1.4 2.5-5 3.3-8 0.8-3 1-5.9 0.5-6.5-0.5-0.6-2.9 1-6.3 4.2-4 3.8-6.7 5.5-9.4 5.9-2 0.4-5.5 0.4-7.7 0-2.2-0.3-5.8-1.8-8-3.4-2.2-1.5-5-4.7-6.2-7.2q-2.2-4.5-2.9-13c-0.5-5.7-0.3-10.3 0.6-14 0.7-3 2.1-7.2 3.1-9.3 1.1-2 3.6-4.9 5.6-6.5 3.1-2.3 4.6-2.7 10.3-2.7 5.6 0 7.3 0.4 10.8 2.7 2.3 1.6 5.3 4.8 6.7 7.3q2.5 4.5 4.5 4.5c1.9 0 2-0.6 1.7-9.3-0.2-8.6-0.3-9.2-2.2-8.9-1.1 0.2-5.4-0.6-9.5-1.8-4.2-1.1-10.3-2-14-1.9-3.6 0-8.5 0.7-11 1.5zm56 6.1c-0.1 1 0.9 2.7 2.1 3.8 1.5 1.5 2 2.8 1.6 5-0.3 1.6-3.3 13.7-6.8 26.8l-6.4 23.7c-5.8 2.3-7.7 3.4-8 4-0.3 0.5 0.1 1.4 0.7 1.9 0.7 0.4 11.1 3.6 23 7 12 3.3 22.4 6.1 23 6.1 0.7 0.1 2.8-3.3 4.5-7.5 1.8-4.1 3.3-8 3.3-8.5 0-0.6-0.9-1-2-1-1.1 0-3.8 1.6-6 3.5-2.3 2-5.1 3.5-6.5 3.5-1.4 0-5.7-0.7-9.5-1.5-3.9-0.8-7.2-1.8-7.4-2.3-0.3-0.4 1-6 2.7-12.5l3.2-11.9c5.4 1.1 8.7 2 10.7 2.8 3.2 1.2 4 2.1 5 5.7 0.6 2.3 1.6 4.8 2.2 5.5 0.9 1.1 1.3 1 2.4-0.5 0.7-1 1.2-2.7 1.2-3.8 0-1.1 0.9-5.8 2.1-10.5 1.4-5.7 1.7-8.8 1-9.5q-1-1-4.3 2.7c-1.8 2.1-4 3.7-4.8 3.7-0.8 0.1-3.8-0.5-6.5-1.2-2.8-0.7-5.6-1.6-6.3-2-0.9-0.5-0.8-2.2 0.7-7.5 1.1-3.7 2.4-8.6 3-11l1.1-4.2c8.1 2.9 12.4 4.7 14.7 5.9 3.4 1.6 4.7 3.1 6 6.6 1 2.5 2.4 4.6 3 4.5 0.7 0 1.8-2.3 2.4-5.3 0.5-2.8 0.9-6.5 0.7-8.1-0.3-2.9-0.4-3-22.3-9.3-12.1-3.4-22.3-6.3-22.8-6.3-0.4 0-0.7 0.8-0.7 1.7zm-233 16.9c-2.5 0.9-6.2 2.7-8.3 4-2 1.3-5.3 4-7.2 5.9-1.9 1.9-4.5 5.4-5.8 7.8-1.9 3.6-2.2 5.7-2.2 14.7 0 9.8 0.2 10.9 3.3 17 1.7 3.6 5.3 8.7 8 11.4 2.6 2.7 6.9 6 9.7 7.3 2.7 1.2 7.2 2.5 10 2.9 3.4 0.4 6.9 0.1 11-1 3.3-1 8.4-3.4 11.4-5.4 3-2 6.9-5.4 8.7-7.4 1.9-2.1 4.1-5.5 4.9-7.5 0.9-2.1 1.9-6.3 2.2-9.3 0.3-3.6 0-7.7-1.1-12-1-3.6-3-8.7-4.6-11.5-1.5-2.7-5.2-7.2-8.2-10-3-2.7-7.2-5.6-9.3-6.3-2.2-0.7-7.2-1.5-11-1.8-5-0.3-8.3 0-11.5 1.2zm-2.8 10.2c2.8-1.8 5.7-2.8 8-2.8 2.1 0 5.3 0.6 7 1.4 1.8 0.7 5.2 3.4 7.5 6 2.4 2.5 5.4 6.7 6.7 9.4 1.3 2.6 3.2 7.6 4.1 11.2 0.9 3.6 1.5 8.5 1.3 11-0.2 2.5-1.4 6.1-2.7 8-1.3 1.9-3.5 4.4-5 5.5-1.4 1-4.8 2.1-7.6 2.4-3.8 0.3-5.8-0.1-8.5-1.6-1.9-1.2-5-3.8-6.9-5.9-1.9-2.2-5-7.3-7-11.4-2.9-6.1-3.6-9-3.9-15.5-0.4-6-0.1-8.9 1.1-11.5 1-2 3.5-4.7 5.9-6.2zm304.3-6.1c-0.5 0.3-0.8 1.3-0.7 2.2 0.1 0.9 1.1 2.5 2.2 3.6 1.5 1.4 2 2.7 1.5 4.5-0.3 1.4-3.6 7.7-7.2 14-3.6 6.3-9.5 15.9-13 21.3-4.2 6.5-7 9.9-8.6 10.2-1.2 0.2-3.3 0.6-4.7 0.7-1.4 0.2-2.6 1-2.8 1.8-0.2 1 2.3 2.6 8 5.1 4.6 2 9.3 3.9 10.5 4.3 1.3 0.3 2.5 0.1 2.8-0.4 0.3-0.6-0.4-2.6-1.5-4.5-1.2-2.2-1.8-4.4-1.4-5.7 0.3-1.3 4.4-8.6 8.9-16.3 4.6-7.7 9.1-14.9 10-16 1.5-1.9 1.6-1.8 1.1 3-0.4 2.8-1.5 13.3-2.6 23.5-1.1 10.2-2 19.7-2 21.3 0 1.9 0.5 2.7 1.7 2.7 1 0 8.1-5.7 15.7-12.7 7.6-7.1 16.1-14.7 18.7-17 2.7-2.4 5.1-4 5.3-3.5 0.2 0.4-2.8 8.1-6.8 17.2-3.9 9.1-7.9 17.8-8.9 19.3-1.3 2.1-2.5 2.7-5.2 2.7-1.9 0-3.7 0.3-4 0.8-0.2 0.4 0.6 1.6 1.8 2.8 1.2 1.2 6.6 4.4 11.9 7.3 8.6 4.5 10 4.9 11 3.6 1.1-1.3 1-1.9-0.4-3.3-1-0.9-1.8-2.7-1.8-3.9 0-1.3 4.3-12.3 9.5-24.5 5.3-12.3 10.2-23.3 11-24.5 1.1-1.7 2.5-2.3 5-2.3 1.9 0 3.8-0.6 4.1-1.2 0.4-0.8-0.4-2-1.7-3-1.3-1-6.1-3.4-10.6-5.5l-8.2-3.8c-24.9 24-32.3 30.8-32.5 30.5-0.2-0.3 0.4-7.5 1.4-16 1-8.5 1.9-18.2 2-21.5 0.1-3.3 0.2-6.5 0.1-7 0-0.6-4-3.1-8.8-5.7-4.9-2.6-9.1-4.8-9.4-4.8-0.3 0-0.9 0.3-1.4 0.7zm-370 33.5c-12.1 8.2-22.7 15.3-23.5 15.8-1.3 0.7-1.3 1.2 0 4.1 0.8 1.9 2.7 5.1 4.2 7.1 1.6 2.1 3.6 3.8 4.5 3.8 1.6 0 1.7-0.6 1-5.5-0.6-5-0.5-5.8 1.7-8.2 1.3-1.6 3.8-3.6 5.5-4.5l3.1-1.8c4.1 6.6 9.7 15.5 15.1 24 5.3 8.5 10.6 17.2 11.6 19.2 1.8 3.7 1.8 3.8-0.2 7.2-1.4 2.4-1.7 3.9-1 4.7 0.7 0.7 1.8 0.6 4-0.5 1.6-0.8 7-4.6 12-8.3 4.9-3.8 9-7.3 9-7.8 0-0.6-2.1-1.2-4.7-1.5-3.1-0.3-5.2-1.2-6.3-2.5-0.8-1.1-6.2-9.4-11.9-18.5-5.6-9.1-11.3-18.4-12.4-20.7l-2.2-4.3c5-3 7.8-4.2 9.5-4.6 1.9-0.4 4.2 0 6.2 1 1.8 0.9 4 1.6 4.8 1.6 0.8 0 1.5-0.7 1.5-1.5 0-0.8-1.9-4.2-4.3-7.5-2.3-3.3-4.4-6-4.7-5.9-0.3 0-10.4 6.8-22.5 15.1zm456.1 15.8c-0.3 0.5-0.2 2.1 0.4 3.5 0.5 1.4 1 3.3 1 4.3 0 0.9-5.4 8.2-12.1 16.2-6.7 8-14.7 17.1-17.8 20.2-3.9 4-6.5 5.8-8.5 6-1.6 0.2-3.1 0.9-3.3 1.6-0.2 0.6 6.7 7.4 15.3 15 8.6 7.5 16.7 14.6 18.1 15.7l2.5 2c12.3-12.8 13-14 11.3-14.3-1.1-0.2-3.7 0.4-5.8 1.2-2 0.9-4.5 1.6-5.5 1.6-0.9 0.1-4.5-2-8-4.5-3.4-2.5-6.7-5.4-7.2-6.5-0.8-1.6-0.4-2.9 1.7-6.2 1.5-2.4 4.6-6.4 7-9l4.3-4.8c7.1 5 9.7 7.4 10.2 8.5 0.6 1.1 0.8 3.7 0.4 5.8-0.4 2.5-0.2 3.9 0.6 4.3 0.7 0.3 3-1.1 5.1-3.2 2.1-2.2 4.9-5.5 6.3-7.4 1.6-2.1 2.4-4.2 2-5.2-0.5-1.6-1.1-1.7-4.4-0.7-3.3 0.9-4.1 0.7-7.2-1.5-1.9-1.4-4.5-3.5-5.7-4.8l-2.3-2.3c9.5-10.9 13.1-14.5 14.1-15 1.5-0.8 2.7-0.4 5.6 2.1 2.1 1.7 4.8 4.6 6.1 6.5 1.4 2.1 2.3 5 2.3 7.4 0 2.2 0.4 4.9 0.8 6 0.7 1.8 0.9 1.7 3.3-1.5 1.3-1.9 3.6-5.3 4.9-7.4l2.4-3.9c-4-3.3-11.9-9.9-20.1-16.8-8.2-6.9-15.4-12.8-16.1-13.2-0.6-0.4-1.4-0.3-1.7 0.3zm-500.7 17.8c-4.6 3.7-9.4 7.4-10.7 8.2-1.6 1.1-2 2-1.5 3.3 0.7 1.5 1.5 1.7 4.3 1.2 3.3-0.5 3.9-0.2 10.1 6.2 3.6 3.7 12 13 18.7 20.6l12.2 13.7c-2.3 4.6-3 6.4-3 7 0 0.5 0.9 1 2 1 1.1 0 6.2-3.7 11.2-8.2 5.1-4.5 9.6-8.6 10-9.2 0.4-0.6 0.5-1.4 0.2-1.8-0.2-0.5-2.2-0.6-4.4-0.3-3.6 0.4-4.5 0.1-8.1-3.2-2.3-2.1-9.4-9.9-15.8-17.3-6.4-7.4-12.6-15-13.9-16.7-1.9-2.8-2-3.7-1.1-6 0.6-1.6 0.8-3.4 0.5-4-0.3-0.7-1-1.3-1.5-1.3-0.4 0-4.6 3-9.2 6.8zm242.6 13.8c-2.8 0.2-9.1 1.1-14 2-5 0.9-12.7 2.7-17.3 4-4.5 1.3-13 4.6-19 7.2-5.9 2.6-14.3 7-18.7 9.6-4.4 2.7-11.2 7.2-15 10.1-3.9 2.9-10.3 8.4-14.4 12.1-4.1 3.8-11 11.4-15.4 16.9-4.4 5.5-10.4 14-13.3 19-2.9 4.9-7.5 14.2-10.2 20.5-2.8 6.3-6.2 15.5-7.6 20.5-1.4 4.9-3.3 13.3-4.2 18.5-1.5 8.3-1.8 20.4-2.1 95.8l-0.3 86.2c6.7 8.9 10.1 13.6 11.8 16.3 1.8 2.6 3.6 4.7 4.2 4.7 0.5 0 0.8-0.6 0.6-1.2-0.2-0.7 0-43.6 0.4-95.3 0.6-59.8 1.3-96.5 2-101 0.6-3.9 2-10.2 3.1-14 1.1-3.9 3.2-10.2 4.6-14 1.4-3.9 4.8-11.5 7.5-17 2.8-5.5 7.8-14.1 11.1-19 3.5-5.1 11.1-13.9 17.7-20.5 6.3-6.3 15.6-14.4 20.5-17.9 5-3.5 14.4-9 21-12.1 6.6-3.2 16.7-7.1 22.5-8.8 5.8-1.7 13.2-3.6 16.5-4.2 3.9-0.8 14-1 28.5-0.8l22.5 0.4c19.5 5.8 30.3 10.1 37 13.4 6.6 3.2 14.7 7.7 18 9.8 3.3 2.2 9.6 7.2 14 11.1 4.4 3.9 11.5 11.1 15.8 15.9 4.3 4.8 9.9 11.8 12.5 15.7 2.6 3.8 6.7 11 9.2 16 2.5 4.9 5.8 12.4 7.2 16.5 1.5 4.1 3.9 11.8 5.4 17 2.5 9.1 2.6 10.9 3.4 45.5 0.5 19.8 0.9 50.6 1 68.5l0.1 32.5 17.2 16c-1-133-1.4-147.6-2.7-155-0.8-5-2.5-12.5-3.6-16.8-1.1-4.2-3.7-12.1-5.9-17.4-2.1-5.4-6.4-14.5-9.6-20.3-3.1-5.8-8.2-13.9-11.3-18-3-4.1-8.7-11.1-12.6-15.4-3.9-4.4-10.9-11.1-15.6-15.1-4.7-3.9-11.9-9.3-16-11.9-4.1-2.7-11.8-7.1-17-9.7-5.2-2.7-14.5-6.4-20.5-8.4-6.1-1.9-15.3-4.4-20.5-5.4-6.1-1.3-15.6-2.1-26.5-2.4-9.4-0.2-19.3-0.3-22-0.1zm300.9 14.6c-3.8 2.7-6.9 5.4-6.9 6.1 0 0.8 2.2 1.2 7.2 1.2 6.2 0 7.5 0.3 9.8 2.5 1.5 1.4 3.1 3.4 3.7 4.5 0.7 1.6 0.5 2.5-1.4 4.3-1.3 1.3-7.7 6.8-14.3 12.1-6.6 5.4-14.7 11.7-17.9 14.2-4.7 3.5-6.8 4.4-9.9 4.4-2.4 0-4.2 0.5-4.4 1.3-0.2 0.6 2.7 4.7 6.4 8.9 3.8 4.2 7.8 8.7 9 10 1.3 1.3 2.7 2.3 3.3 2.3 0.5 0 1-2.2 1-5 0-4.2 0.5-5.4 2.7-7.5 1.6-1.4 9.3-7.9 17.3-14.3 8-6.5 15.8-12.7 17.4-13.8l2.9-1.9c3.6 4.3 5 6.5 5.3 7.8 0.3 1.2-0.2 4.7-1 7.7-1.1 3.6-1.3 5.8-0.6 6.5q1 1 3.2-0.3c1.3-0.7 4.5-3.3 7.3-5.6l5-4.4c-3.1-3.8-11.3-14-20.3-25.1-8.9-11-16.6-20.3-17-20.4-0.4-0.2-3.9 1.8-7.8 4.5zm-572.4 6.6c-2.5 1-6.6 3.2-9.3 5-2.9 2-9 8.6-16.2 17.7-6.9 8.7-11.3 15.1-11 16 0.3 0.8 1.4 1.5 2.5 1.5 1.1 0 2.2-0.5 2.5-1 0.3-0.6 1.3-1 2.2-1 1 0 6.7 3.8 12.8 8.5 6 4.7 14.8 11.8 19.5 15.8 6.9 5.8 8.8 8.1 10 11.6 0.8 2.5 1.9 4.6 2.5 4.7 0.5 0.1 3.7-3.1 7-7.3 3.3-4.1 8.6-10.9 11.9-15.1 3.2-4.3 6.5-9.3 7.4-11.2 0.9-2.1 1.5-6.6 1.5-11.5 0-6.6-0.4-9-2.6-13.7-1.5-3.2-5.1-8.2-8-11.1-2.8-2.9-7.5-6.3-10.2-7.6-3.1-1.5-7.4-2.5-11.5-2.8-4.7-0.2-7.8 0.2-11 1.5zm-6.5 13.6c1.6-0.7 5.7-1.3 9-1.4 4.4 0 7.3 0.6 11 2.4 2.7 1.4 7.2 4.7 9.8 7.3 2.7 2.6 6 7.1 7.3 9.8 1.5 3.1 2.4 6.7 2.4 9.5 0 2.5-0.9 6.3-2 8.5-1 2.2-3.1 5.1-4.5 6.5-2.1 2.1-2.8 2.3-4.8 1.4-1.2-0.7-9.2-6.8-17.7-13.7-8.5-6.9-17.3-14.2-23.5-19.7l5-4.6c2.7-2.6 6.3-5.3 8-6zm277 31.8c-0.2 0.7-0.6 12.9-0.7 27-0.2 14.1-0.7 26-1.1 26.5-0.5 0.4-11.4 1-24.2 1.3-12.8 0.3-23.7 0.9-24.2 1.3-0.4 0.5-0.9 6.4-1.1 13.3-0.2 10.7 0 12.7 1.5 14.2 1.6 1.6 4.5 1.9 24.8 2.5 12.6 0.4 23.2 1 23.5 1.3 0.3 0.3 0.8 20 1.2 43.7 0.3 23.8 0.7 67.5 0.7 97.2l0.1 54c-22.9 3.5-33.8 5.5-39 6.9-5.2 1.3-9.8 2.2-10.3 2-0.4-0.2-0.7-23.1-0.7-50.9v-50.5l31.5-0.5v-20l-31.5-0.5c0-29.1-0.4-38.1-0.8-38.7-0.4-0.7-2.3-1.7-4.2-2.3-1.9-0.5-5.3-1-7.5-1-2.2 0-5 0.2-6.3 0.5-2.2 0.5-2.2 0.6-2.2 20.5v20c-5 0.2-12.8 0.5-20.5 0.9l-14 0.6v20l34.5 0.5v110c-14.3 7.1-22.3 11.8-27 15-4.7 3.2-12 9.2-16.4 13.2-7.8 7.3-7.8 7.3-10.2 16.3-1.4 4.9-3.6 10.5-4.9 12.2-1.4 1.8-3.1 3.2-3.8 3-0.6-0.1-2.9-3.6-5-7.7l-3.9-7.5c1-14.7 1.5-23.1 1.8-28 0.5-6.7 0.2-10.7-1-15.5-0.9-3.6-3.2-9.8-5.1-13.8-2.4-5-5.6-9.3-10.3-14-3.7-3.7-9.9-8.7-13.7-11-3.9-2.3-10.4-5.3-14.5-6.7-4.1-1.4-16.5-4.4-27.5-6.5-11-2.2-20.3-3.7-20.7-3.2-0.3 0.4-0.2 3.2 0.3 6.2 0.5 3 1.8 12.9 2.9 22 1.1 9.1 3.1 20.5 4.4 25.5 1.3 4.9 3.8 11.9 5.5 15.5 1.6 3.6 5.2 9 7.9 12 2.7 3 7.3 7.2 10.3 9.2 3 2 8.8 4.8 12.9 6.2 4.5 1.4 12.2 2.9 19.2 3.5 8.1 0.8 12.6 1.7 14.4 2.8 1.5 1 4.4 5.3 6.5 9.5 3.1 6.3 4.4 7.9 6.6 8.4 1.6 0.4 69.7 0.7 151.5 0.8 97.9 0.1 149.1-0.2 149.8-0.9 0.9-0.7 0.4-2.7-1.8-7.5-1.7-3.6-5.4-10.1-8.4-14.5-2.9-4.4-10.5-13.2-16.8-19.5-6.3-6.3-14.3-13.5-17.8-16l-6.2-4.5v-133.5c29-0.5 32.3-0.8 33-2 0.5-0.8 1-5 1-9.3 0-5.5-0.4-8.1-1.5-9.2-1.2-1.2-4.6-1.5-17-1.5h-15.5c0-29.6-0.3-34.2-1.3-34.7-0.6-0.4-4.6-0.9-8.8-1.2q-7.6-0.6-9 0.6c-1 0.8-1.5 5.2-1.9 17.1-0.3 8.8-0.9 16.4-1.3 16.9-0.5 0.4-7.9 1-16.5 1.3l-15.7 0.5c-0.4 14.7-0.1 19.4 0.4 20 0.5 0.5 7.7 1.2 15.9 1.5 8.3 0.3 15.4 0.9 15.9 1.3 0.4 0.5 0.8 27.6 0.8 60.2 0 32.6-0.2 59.6-0.5 60-0.3 0.3-6.8-0.9-14.5-2.9-7.7-1.9-19.5-4.3-26.3-5.3l-12.2-1.8c0-177.8 0.2-192.3 1.4-194 1.3-1.9 2.9-2 24.1-2.5 18.6-0.4 22.8-0.8 23.6-2 0.5-0.9 0.8-7 0.7-14.2-0.2-6.9-0.7-13-1.1-13.5-0.5-0.4-11.4-1-24.2-1.3-12.8-0.3-23.6-0.7-23.9-1-0.4-0.3-1-12.7-1.4-27.5l-0.7-27c-27.8-0.5-31.6-0.3-32 0.7zm-197.5 280.6c0-0.5 0.6-0.8 1.2-0.8 0.7 0 6 4.8 11.9 10.7 6.2 6.4 13.1 14.7 16.7 20.3 3.4 5.2 6.2 10.2 6.3 11 0 1.2-0.5 1.1-2.2-0.5-1.2-1.1-7.9-8.7-14.8-16.9-6.9-8.2-14.1-16.7-15.9-19-1.8-2.3-3.3-4.4-3.2-4.9zm549.6-276.7l-0.6 5c-31.4 18.4-42 24.5-43.8 25.4-2.9 1.4-3.5 1.4-5.7 0.1-1.4-0.8-3.2-1.5-4-1.5-0.8 0-1.5 0.3-1.5 0.7 0 0.5 2.1 4.6 4.6 9.3 2.5 4.7 8 14.5 12.2 21.8 6.6 11.4 8 13.1 9.7 12.6 1.1-0.4 4.9-2.1 8.4-3.8 3.5-1.7 6.4-3.6 6.5-4.1 0-0.6-2.6-1.3-5.9-1.6-3.3-0.3-7-1.2-8.3-2-1.3-0.8-3.6-3.4-5.1-5.9-1.6-2.5-3.2-5.5-3.5-6.8-0.3-1.2 0-2.9 0.6-3.9 0.7-0.9 3.5-3 6.3-4.8 2.7-1.7 6.6-4.1 8.5-5.3l3.5-2.2c6.5 11.9 6.7 12.8 5.6 16-0.6 1.9-1.1 3.8-1.1 4.2 0 0.5 0.8 0.8 1.7 0.8 1 0 4.9-2.2 8.8-4.8 3.8-2.6 7-5.4 7-6.2 0-1.1-1.3-1.6-4.5-1.8-4.2-0.2-4.7-0.5-7.2-5-1.5-2.6-2.8-5.4-2.8-6.2 0-0.8 3.5-3.7 7.7-6.3 4.3-2.7 8.7-4.7 9.8-4.5 1.3 0.2 3.2 2.5 5.2 6.3 1.8 3.3 3.3 7.1 3.3 8.5 0 1.4-1.3 4.5-2.9 7q-3 4.5-2 5.5 1 1 8.4-2.8c4.3-2.1 7.5-4.3 7.5-5.2 0-0.8-3.7-8.1-8.2-16.3-4.5-8.1-9.9-17.5-12-21-2.1-3.4-4.2-6.2-4.7-6.2-0.5 0-1.1 2.2-1.5 5zm-674.6 15.2c-2.2 4-7 13.2-10.8 20.5-3.7 7.3-6.4 13.5-6 13.8 0.5 0.3 2.4-0.1 4.3-0.8 3.2-1.1 4-0.9 9.2 1.6 3.2 1.6 13 7.1 21.8 12.2 8.8 5.2 17.3 10.9 18.9 12.7 2.8 3.3 2.8 3.3 4.7 1.3 1-1.1 6.1-9.7 11.3-19l9.5-17c-10.8-10.5-14.4-13.5-14.9-13.5-0.6 0-1 0.7-1 1.5 0 0.8 1.1 3.7 2.5 6.5 1.4 2.7 2.5 5.8 2.5 6.7 0 1-1.6 5.1-3.5 9-1.9 4-4 7.5-4.5 7.8-0.6 0.3-5.4-1.8-10.8-4.7-5.3-2.8-9.9-5.3-10.2-5.5-0.3-0.2 0.6-2.5 2-5 1.4-2.5 3.3-5.3 4.4-6.2 1-0.9 3.5-1.8 5.5-2.1 2-0.3 3.6-1.1 3.6-1.7 0-0.7-3.7-3.7-8.3-6.7-4.5-3.1-8.7-5.6-9.2-5.6-0.6 0-1 0.6-1 1.2 0 0.7 1 2.9 2.2 4.8 1.8 3 1.9 3.9 0.9 6-0.7 1.4-2.3 4.4-3.7 6.7l-2.4 4.3c-10.9-5.8-15-8.4-16.1-9.5-1.9-1.9-1.9-2.2-0.4-6 0.9-2.2 2.8-5.2 4.3-6.7 1.5-1.5 3.8-3 5.2-3.3 1.4-0.4 4.2-1 6.2-1.6 2.1-0.5 3.6-1.2 3.4-1.7-0.2-0.4-3.4-2.2-7.2-4-3.8-1.8-7.2-3.2-7.6-3.2-0.4 0-2.6 3.3-4.8 7.2zm707.6 40.8c-0.3 0.5-0.4 1.8-0.1 2.7 0.3 1 0 2.6-0.7 3.5-0.7 0.9-7.8 4.4-15.8 7.6-8 3.2-19.1 7.6-24.8 9.8l-10.3 3.9c-6-6.1-7.2-6.7-8.1-5.9-0.9 0.8-0.3 3.8 2.6 13 2.1 6.5 4.2 12.7 4.7 13.6 0.7 1.5 1.2 1.6 2.4 0.5 0.9-0.6 1.6-2 1.5-3 0-0.9 1-2.4 2.2-3.2 1.3-0.8 6-2.8 10.5-4.5 4.6-1.6 9-3 9.8-3 0.8 0 1.5 0.6 1.5 1.2 0 0.7-4.9 7.3-11 14.5-9.7 11.7-10.9 13.6-10.4 16 0.4 1.6 1.4 5 2.3 7.8 1 3 2.2 5 3.1 5 0.8 0 2.6-2 4-4.5 1.3-2.5 6.4-8.7 11.2-13.8l8.8-9.2c7.1 5 10.2 6.2 13.5 6.6 4 0.4 5.9 0.1 9.5-1.8 3.1-1.6 5.1-3.6 6.7-6.8 1.6-3.1 2.3-6.2 2.3-10 0-3.7-1.3-9.2-4-17-2.1-6.3-5-14.1-6.4-17.3-1.4-3.1-3-5.9-3.5-6.2-0.5-0.3-1.2-0.1-1.5 0.5zm-7.5 26.3c5.7-2.3 11-4.2 11.6-4.2 0.7-0.1 1.7 0.8 2.3 1.9 0.5 1.1 1 4.1 1 6.7 0.1 3.3-0.6 5.7-2 7.5-1.1 1.6-3.4 3.5-5 4.3-1.7 0.8-4.5 1.5-6.3 1.5-1.7 0-4.6-0.9-6.2-1.9-1.7-1.1-3.8-3.4-4.9-5.3-1-1.8-1.7-4-1.4-4.8 0.3-0.8 5.2-3.4 10.9-5.7zm-721.9-6.4c-2.5 1.2-5.4 3.5-7 5.8-1.5 2.1-5 11-7.9 19.8-2.9 8.8-5.3 16.7-5.4 17.5-0.1 0.8-0.1 2.1 0 2.7 0 0.7 0.8 1.3 1.6 1.3 0.8 0 1.9-0.9 2.5-2 0.5-1.1 2-2.2 3.2-2.5 1.3-0.4 8.9 1.4 17.3 3.9 8.2 2.5 19 5.9 24 7.6 4.9 1.7 9.6 3.6 10.3 4.3 0.7 0.7 1.2 1.9 1.2 2.7 0 0.8 0.6 2.1 1.5 2.7 1.3 1.1 1.7 0.8 2.9-2 0.8-1.7 2.3-6.8 3.4-11.2 1.1-4.4 2.3-9.5 2.6-11.3 0.5-2.5 0.2-3.3-1.2-3.9-1.1-0.4-2.1 0.1-2.9 1.3-0.7 1-1.7 2.5-2.3 3.1-0.5 0.7-2.2 1.3-3.8 1.3-1.5 0-5.4-0.9-8.7-2-3.3-1.2-6.5-2.5-7-3.1q-1-1 0.5-1.9c0.8-0.6 5.8-2.6 11-4.6 5.2-2 12.1-4.8 15.3-6.3 4.9-2.2 6-3.2 7.3-6.6 0.9-2.2 1.9-6.1 2.2-8.8 0.6-3.8 0.4-4.7-0.8-4.8-0.8 0-2.2 0.8-3 1.7-0.8 0.9-3.5 2.6-6 3.6-2.5 1.1-8.9 3.5-14.3 5.4-5.3 1.9-9.9 3.4-10.2 3.4-0.3 0-1.2-2.1-2-4.8-0.9-2.6-2.6-6.1-3.9-7.7-1.2-1.7-3.9-3.8-5.9-4.8-2-0.9-5.2-1.7-7-1.7-1.7 0-5.1 0.9-7.5 1.9zm-2 14.6c1.3-0.8 4-1.5 6-1.5 2.1 0 5.1 0.7 6.8 1.5 1.8 0.9 3.8 3.2 5 5.7 1.3 2.8 2 5.9 1.8 8.8-0.3 4.3-0.4 4.5-3.3 4.2-1.7-0.2-7.2-1.6-12.3-3.2-5-1.7-9.5-3.6-9.8-4.3-0.3-0.6 0.4-3.1 1.5-5.5 1.2-2.3 3.1-4.9 4.3-5.7zm587.3 80.2c-3.3 2.6-8.2 7-10.9 9.8-2.7 2.7-7.1 8.4-9.8 12.5-2.7 4.1-6.2 11-7.8 15.2-1.7 4.3-3.4 9.9-4 12.5-0.5 2.7-1.4 10.2-1.9 16.8-0.5 6.6-2.7 20.7-4.8 31.2-2.1 10.6-4 19.3-4.3 19.3-0.3 0.1-1-1.2-1.7-2.7-0.6-1.5-2.3-7.1-3.8-12.3-1.4-5.2-4.3-13.1-6.4-17.5-2.2-4.4-5.9-10.7-8.4-14-2.4-3.3-6.9-8.2-9.8-10.9-3-2.7-7.9-6.6-10.9-8.6-3-2.1-6.7-4.3-8.3-4.9-2-0.8-2.9-0.8-3.7 0.1-0.7 0.9-0.7 4.5 0 11.3 0.6 5.5 1.6 12 2.2 14.5 0.6 2.5 2.2 7 3.5 10 1.4 3 4.6 8.2 7.1 11.4 2.6 3.3 7.2 8 10.2 10.4 3 2.4 8.6 6.1 12.5 8.2 3.8 2.1 7.5 4.4 8.2 5.2 0.6 0.7 1.9 5.3 2.8 10.3 1.3 6.5 1.6 11.7 1.2 18.5-0.3 5.2-1.1 12.3-1.6 15.7-0.6 3.5-1.4 6.3-1.9 6.3-0.4 0-1.5-3-2.5-6.7-0.9-3.8-2.9-9.3-4.4-12.3-1.5-3-4.7-7.5-7.2-10-2.5-2.5-7.1-5.8-10.1-7.3-3-1.5-8-3.4-11-4.2-3-0.7-5.9-1.1-6.4-0.7-0.5 0.4-0.6 2-0.4 3.7 0.3 1.6 2 6.4 3.7 10.5 1.7 4.1 5.1 10.1 7.6 13.2 2.5 3.2 8.7 8.9 13.7 12.7 5.1 3.8 10 7.7 11 8.7 0.9 1.1 2.1 3.7 2.7 5.9 0.6 2.2 1.1 8.6 1.1 14.2v10.3l-350.9 0.5c-4.3 3.2-7 6.1-8.6 8.4l-3 4.3c0 37.2 0.1 37.8 2.3 40l2.3 2.3 376.9 0.5c3.2-4.9 3.6-8.2 3.8-21 0.2-8.5-0.1-17.3-0.6-19.5-0.6-2.3-2.9-6.1-5.5-9l-4.5-5c4.5-8.5 7.1-12.6 8.6-14.5 2.4-3 4-3.8 10.8-5.4 4.3-1.1 11-3.5 14.9-5.5 5-2.5 9.5-6.1 15.7-12.3 4.9-4.9 9.1-9.8 9.4-11.1 0.4-1.3 0.1-2.5-0.8-2.9-0.7-0.4-5.1-0.8-9.8-0.8-5.7 0-10.6 0.6-15 1.9-3.6 1.1-8.7 3.5-11.4 5.3-2.7 1.8-6.6 5.2-8.5 7.6-2 2.3-5.3 7-7.3 10.5-2.1 3.4-4.2 6.9-4.8 7.7-0.8 1.1-0.9-1.5-0.5-9.3 0.3-7.5 1.2-13 3-18.5 1.4-4.2 4.4-11.3 6.8-15.7l4.2-8c16.3-5.5 23-8.1 25.5-9.3 2.5-1.2 7.4-4.6 11-7.6 3.6-3.1 8.7-8.1 11.3-11.3 2.6-3.2 6.3-9 8.2-12.8 2.8-5.7 3.3-7.3 2.2-8.4-0.9-1.1-3.2-1.2-10.2-0.8-5 0.3-11.9 1.5-15.5 2.6-3.6 1.2-8.8 3.4-11.5 5-2.8 1.6-6.8 4.4-9 6.3-2.2 1.9-6.1 6.6-8.7 10.4-2.5 3.8-5.9 10-7.5 13.8-1.5 3.8-3.1 7-3.6 7.2-0.4 0.2-0.7-2.6-0.7-6.4 0-4.6 1.4-12.3 4.6-25.2l4.5-18.5c16.2-16.7 22.9-24.5 25.4-28.3 2.5-3.7 5.6-10.1 7-14.2 1.3-4.1 2.9-11.3 3.5-16 0.5-4.7 1-11.8 1-15.8 0-3.9-0.6-8.3-1.3-9.7-0.6-1.4-1.7-2.5-2.2-2.5-0.6 0-3.7 2.1-7 4.7zm-583.3 86c-1.8 0.9-4.2 2.8-5.2 4.2-1 1.4-2.2 3.9-2.6 5.6-0.3 1.6-0.4 4.7 0 6.7 0.4 2.5 1.9 5.1 4.1 7.3 2.2 2.2 4.8 3.7 7.2 4.1 2.1 0.4 5.5 0.1 7.5-0.5 2.3-0.7 5-2.6 6.8-4.9 1.6-2 3.2-4.8 3.6-6.2 0.3-1.4 0.1-4.3-0.5-6.5-0.6-2.2-2.3-5.2-3.8-6.6-1.5-1.5-4.4-3.1-6.3-3.8-1.9-0.6-4.4-1.1-5.5-1.1-1.1 0-3.5 0.8-5.3 1.7zm715.9-0.3c-1.9 0.7-4.5 2.7-5.8 4.5-1.2 1.7-2.6 4.6-2.9 6.3-0.3 1.8-0.1 4.9 0.4 6.8 0.6 1.9 2.6 4.9 4.4 6.6 1.8 1.7 4.9 3.4 6.8 3.8 1.9 0.4 5 0.5 6.7 0.2 1.8-0.3 4.9-2.2 6.8-4.1 1.9-1.9 3.8-5 4.1-6.8 0.3-1.7 0.3-4.6 0-6.2-0.3-1.7-1.4-4.2-2.6-5.8-1.1-1.5-3.8-3.6-6-4.7-2.2-1.1-5-2-6.3-2-1.2 0.1-3.7 0.7-5.6 1.4zm-667.6 68.1c-0.3 1.6-1 3.7-1.4 4.5-0.4 0.8-10.6 6.5-22.7 12.6-12 6.2-22.9 11.4-24.2 11.8-1.6 0.4-2.8-0.1-4.5-1.9-1.2-1.4-2.9-2.5-3.7-2.5-1.2 0-1.3 0.6-0.7 3.2 0.4 1.8 3 7.9 5.7 13.5 3 6.3 5.6 10.3 6.5 10.3 1 0 1.7-1.3 2-3.8 0.6-3.6 0.9-3.9 9.5-8 7.5-3.5 9.3-4 10.6-3 0.9 0.7 3.8 5.7 6.5 11 2.7 5.4 4.9 10.5 4.9 11.3 0 0.9-3.8 3.4-9.6 6.2-9.5 4.8-9.6 4.8-12.5 3-1.6-0.9-3.4-1.7-3.9-1.7-0.6 0-1 0.7-1 1.5 0 0.8 1.6 4.8 3.6 8.7 2 4 4.7 9 6 11 1.3 2.1 2.8 3.6 3.4 3.3 0.5-0.3 1-1.6 1-3 0-1.6 1-3.2 2.7-4.4 1.6-1 12.5-6.9 24.3-13.1l21.5-11.2c3.7 3.9 5 4.4 6 3.9q1.5-0.7 0.9-3c-0.4-1.2-2.7-6.3-5.3-11.2-2.8-5.6-5.3-9.1-6.4-9.3-1.2-0.1-1.9 0.7-2.5 2.9-0.4 1.8-1.8 4-3.2 4.9-1.4 1-5.4 3.2-9 4.9-5.3 2.7-6.7 3-7.7 1.9-0.6-0.7-3.3-5.6-5.8-10.8-2.6-5.2-4.5-10.4-4.3-11.5 0.2-1.4 3.1-3.4 9.2-6.5l8.8-4.5c6.8 3.9 7.9 4.2 8.4 3.2 0.3-0.6-1.8-6.4-4.7-12.7-2.8-6.3-5.8-12.2-6.5-13-1.1-1.3-1.4-1.1-1.9 1.5zm621.1 19.7c-2.4 5.1-5 11-5.7 13-0.8 2-1.1 4-0.7 4.3 0.5 0.3 2.4-0.4 4.3-1.5 3.3-1.9 3.7-1.9 7.7-0.4 2.4 0.9 13 5.7 23.6 10.7 18.4 8.8 19.3 9.4 20.7 12.9 0.8 2.1 2.1 3.6 2.7 3.5 0.7-0.2 5.1-9.2 9.8-20 8-18.5 8.4-19.8 6.8-21.4-0.9-1-4.8-3.4-8.7-5.3-3.9-1.9-7.4-3.2-7.8-2.8-0.4 0.4 0 1.8 1 3 1 1.3 2.9 3.9 4.3 5.8 1.3 1.9 2.4 4.8 2.4 6.5 0 1.6-0.9 4.9-2 7.2-1.4 3-2.6 4.3-4 4.3-1.1 0-6.4-2-11.8-4.3-5.3-2.4-15.2-7-22-10.3l-12.4-5.9c-1.2-6.6-2.1-8.5-2.7-8.5-0.7 0-3.2 4.2-5.5 9.2zm-26.1 44.8c-1.4 2.2-2.5 4.5-2.5 5.2 0 0.7 2.6 4.2 5.7 7.8 3.1 3.6 11 13.7 17.6 22.5 6.6 8.8 12.8 17.7 13.8 19.7 1.4 2.8 1.6 4.3 0.9 5.8-0.8 1.6-0.6 2.2 1 3 1.8 0.9 2.6 0.2 6.8-5.8 2.7-3.7 5.9-8.2 7.3-10.1 2-2.8 2.2-3.4 0.9-4.1-0.8-0.5-2.9-0.4-4.5 0.2-2.1 0.7-3.8 0.7-5.5-0.1-1.4-0.6-4.4-3.4-6.8-6.1l-4.2-5c10.4-13.8 12.5-15.9 13.7-15.5 1 0.2 4.5 1.3 7.8 2.3 5.8 1.7 6 1.9 6.5 5.7 0.3 2.1 1.1 4 1.7 4.2 0.7 0.2 3-2.3 5-5.5 2-3.1 4.9-8.5 6.5-12 1.5-3.4 2.6-6.4 2.3-6.7-0.3-0.3-2 0-3.8 0.5-1.7 0.6-4.6 1-6.2 1-1.7 0-15.4-2.5-30.5-5.5-15.1-3-28.3-5.5-29.2-5.5-1 0-2.9 1.8-4.3 4zm-562 2.7c-0.5 0.3-0.8 1.8-0.7 3.2 0.1 1.4-0.4 3.5-1.1 4.6-0.8 1.1-8.8 7.9-17.8 15.1-9 7.2-17.5 13.8-18.9 14.8-1.8 1.2-3.6 1.6-6.3 1.2-2-0.3-3.9-0.3-4.1 0.1-0.3 0.5 0.3 2 1.2 3.5 0.9 1.5 7.2 9.9 13.9 18.7 6.8 8.9 13 16.1 13.8 16.1 0.8 0 4.2-1.4 7.5-3 3.3-1.7 6.3-3.5 6.7-4.1 0.5-0.6 0.1-1.5-0.7-2-0.8-0.5-4-0.9-7-0.8-4.9 0-5.9-0.4-8.8-3.3-1.9-1.8-4.7-5.2-6.3-7.6-2.4-3.5-2.7-4.5-1.7-5.9 0.7-0.9 4.7-4.3 8.8-7.5 7.2-5.7 7.6-5.8 9.4-4.1 1 1 2.9 3.6 4.2 5.8 2 3.3 2.3 4.7 1.7 8.3-0.7 3.7-0.6 4.2 0.9 4.2 1 0 4.8-2.8 8.5-6.3 4-3.8 6.4-6.7 6-7.5-0.5-0.8-2-1-5-0.6-4.2 0.7-4.2 0.6-8.5-4.7l-4.2-5.4c5-4.3 8.9-7.3 11.9-9.3l5.3-3.7c3.7 4.6 5.7 7.8 6.8 10 1.2 2.4 2 6.1 2 9.2 0 3.2 0.5 5.6 1.2 6 0.8 0.4 2.6-0.9 4.5-3.3 1.8-2.1 3.7-4.8 4.4-5.9 1-1.7 0.4-2.8-4.2-8.5-3-3.6-8.9-11.3-13.2-17.3-4.2-5.9-8.1-10.7-8.5-10.7-0.5 0-1.2 0.3-1.7 0.7zm542.5 28.4c-4.1 4.5-12.6 13.7-18.8 20.3-6.2 6.7-11.2 12.3-11.2 12.6 0 0.3 2.7 3.4 6 7 3.8 4.2 6.3 6.1 6.9 5.5 0.5-0.6 0.5-3.1-0.2-6.3-1.1-4.7-1-5.7 0.8-8.9 1.1-2 2.7-4.1 3.7-4.7 1.3-0.9 2.5-0.4 6 2.5 2.3 2 10.7 9.5 18.5 16.8l14.3 13.1-1.4 12.5c6.1-5.1 10.9-9.9 14.6-14 3.8-4.1 6.8-8.2 6.8-9 0-1.1-0.7-1.3-2.8-0.9-1.5 0.4-3.6 0.6-4.7 0.5-1.1 0-4.9-2.6-8.5-5.7-3.6-3.1-11.8-10.5-18.3-16.5-8.9-8.3-11.7-11.5-11.7-13.4 0-1.6 0.9-3.1 2.7-4.2 1.9-1.2 4.8-1.8 8.7-1.8 3.9 0 6-0.4 6.3-1.3 0.1-0.6-2.1-3.7-5-6.8l-5.2-5.6zm-508.6 15.6c-0.4 0.3-0.7 2.6-0.6 5 0.2 4-0.3 4.8-6.7 12.1-3.8 4.2-11.3 12.3-16.7 17.9-7.4 7.7-10.5 10.3-12.4 10.3-1.4 0-3.4 0.6-4.5 1.3-1.9 1.4-1.7 1.7 5 8.2 3.8 3.7 8.5 7.8 10.2 9.1 1.8 1.3 3.7 2.2 4.3 1.9 0.6-0.3 0.4-1.9-0.5-4.2-0.9-2.1-1.3-4.7-1-5.8 0.3-1.1 3.3-5.1 6.8-8.9 4.6-5.1 6.6-6.7 7.9-6.3 1.1 0.5 1.8 1.7 1.8 3.5 0 1.5-1 7.4-2.1 13.2-1.6 7.6-1.9 11.9-1.4 15.5 0.6 4.3 1.5 5.7 6.1 10.3 3 2.8 6.1 5.2 6.9 5.2 0.8 0 1.7-0.6 1.9-1.2 0.1-0.7-0.3-3.1-1.1-5.3-1-2.6-1.3-5.9-0.9-9.5 0.4-3 1.4-9.2 2.4-13.7 1.7-8.1 1.8-8.2 4.2-7.5 1.4 0.4 4.6 0.7 7.2 0.7 3.8 0 5.3-0.5 7.9-3 1.7-1.6 4-4.8 5-7 1-2.2 1.9-5.3 1.9-7 0-1.6-0.9-4.8-1.9-7-1.1-2.4-6.1-8.1-12.7-14.4-6-5.6-12.1-11.1-13.5-12.2-1.5-1-3-1.6-3.5-1.2zm2.5 26.6c4.3-4.6 8.6-8.3 9.5-8.3 0.9 0 3 1.7 4.6 3.8 1.8 2.2 3 4.9 3 6.7 0.1 1.7-1.1 4.8-2.6 7-1.5 2.2-3.4 4.6-4.3 5.2-0.9 0.7-3.4 1.2-5.6 1.2-2.7 0-5.4-0.9-8.2-2.7-2.4-1.5-4.3-3.1-4.3-3.7 0-0.5 3.6-4.7 7.9-9.2zm461.1 4.3c-0.8 0.3-3.3 1.5-5.5 2.6-2.2 1.1-8.3 5.4-13.5 9.6-5.2 4.2-9.8 8.1-10.2 8.6-0.4 0.6-0.8 1.7-0.8 2.4 0 0.7 1.3 1.2 3.2 1.2 2.4 0.1 4.1 1 6.3 3.3 1.6 1.8 8.8 11.1 15.8 20.7 9.3 12.6 12.7 18.1 12.4 19.5-0.3 1.1-0.8 3-1.1 4.3-0.5 1.7-0.2 2.2 1.4 2.2 1.1 0 4.1-1.6 6.7-3.7 2.7-2 7.3-5.6 10.3-8.1 3-2.4 5.5-5 5.5-5.6 0-0.7-1.8-1-5-0.8l-5 0.3c-7.9-9.8-10.9-13.8-11.9-15.3-1.5-2.6-1.5-2.8 0.1-3.4 1-0.4 4.7 0.5 8.3 2.1 3.6 1.5 9.3 3.8 12.7 5.1 3.5 1.3 7.5 2.4 9 2.4 1.6 0 4.8-1 7.3-2.1 2.5-1.1 6-3.4 7.8-5.2 1.8-1.8 3.2-3.5 3.2-3.9 0-0.5-2.8-0.7-6.3-0.7-5 0.1-8.5-0.7-17.7-4-6.3-2.3-11.6-4.3-11.8-4.4-0.2-0.1 0.4-2.7 1.3-5.7 1.6-5.2 1.6-5.8-0.2-10.4-1.3-3.7-2.9-5.8-6.2-8-3.2-2.3-5.6-3.2-9.5-3.3-2.8-0.1-5.8 0-6.6 0.3zm-9.4 11.9c1.8-0.9 4.9-1.4 8.1-1.3 3.8 0.2 5.8 0.9 7.8 2.8 1.5 1.4 3.3 3.7 4.1 5.3 0.8 1.5 1.4 3.9 1.4 5.5 0 1.8-1.3 4-3.8 6.5-2 2-4.3 3.7-5 3.7-0.6 0-4.4-4.5-8.2-10-3.9-5.5-7.1-10.2-7.2-10.5-0.1-0.2 1.2-1.1 2.8-2zm-408.1-2.5c-0.3 0.6 0.3 2.3 1.2 3.9 1.8 3 1.8 3-2.1 8.8-2.1 3.2-8.2 11.9-13.4 19.3-5.3 7.4-10.8 14.7-12.3 16.3-2 1.9-3.7 2.7-6.3 2.7-2 0-3.6 0.5-3.6 1 0 0.6 1.9 2.5 4.2 4.4 2.4 1.9 7.2 5.2 10.8 7.5 3.6 2.3 7.3 4.1 8.2 4.1 1 0 1.8-0.4 1.8-1 0-0.5-0.9-2.2-2.1-3.7-1.9-2.6-2-3-0.6-5.8 0.8-1.6 6.8-10.4 13.2-19.5 6.5-9.1 12.9-17.7 14.4-19.2 1.8-2 3.2-2.6 4.6-2.2 1.1 0.4 2.9 0.4 4 0 1.9-0.6 1.9-0.7-0.5-3.2-1.4-1.4-6.2-5.2-10.8-8.5-4.5-3.2-8.6-5.9-9.2-5.9-0.5 0-1.1 0.5-1.5 1zm25 22.8c-1.9 2.6-3.9 5.9-4.5 7.5-0.8 2.2-0.7 2.8 0.5 3.2 0.8 0.3 2.7-0.5 4.2-1.8 1.6-1.3 4.1-2.7 5.8-3.1q3-0.7 6.7 0.8c2.1 0.9 3.8 2.2 3.8 2.9 0 0.6-3.7 8.4-8.1 17.2-4.5 8.8-9.6 18.8-11.5 22.3-3.4 6.2-3.4 6.2-7.7 6-2.3-0.1-4.8 0.1-5.5 0.5-0.6 0.4-1.2 1-1.2 1.5 0 0.4 4.1 3 9.2 5.9 5.1 2.9 11.4 6 14 7 3.2 1.2 5.1 1.5 5.9 0.8 0.7-0.7 0.1-1.9-2.2-4l-3.2-3c18.2-36.4 23.7-47.2 23.9-47.5 0.2-0.3 1.8 0.2 3.6 1 1.7 0.8 4.2 2.7 5.5 4.3 1.4 1.7 2.3 3.9 2.3 6-0.1 1.7 0.6 3.8 1.5 4.5 1.2 1 1.8 0.7 3.4-1.5 1.1-1.6 2.7-4.5 3.5-6.5 0.9-2.1 1.4-4.2 1.1-4.8-0.3-0.5-10.1-5.8-21.8-11.6-11.6-5.9-22.2-11-23.5-11.5-1.9-0.7-2.7-0.2-5.7 3.9zm335 2.6c-2.2 0.6-6 2.4-8.5 3.8-2.5 1.4-6.5 4.8-8.9 7.4-2.5 2.7-5.4 6.9-6.4 9.4-1.6 3.7-1.9 6-1.5 13 0.4 6.3 1.2 9.9 3.1 14 1.4 3 4.5 7.7 6.9 10.4 2.5 2.8 6.8 6 10.3 7.8 5.5 2.7 6.7 2.9 14.5 2.6 6.3-0.3 9.8-1 13.5-2.8 2.7-1.3 7-4.4 9.5-7 2.8-2.8 5.5-6.8 7-10.5 1.6-4.1 2.3-7.9 2.3-12-0.1-3.5-1-8.5-2.2-12-1.2-3.3-4-8.4-6.1-11.2-2.2-2.9-6-6.6-8.5-8.3-2.5-1.6-7.1-3.7-10.3-4.5-3.1-0.8-6.8-1.5-8.2-1.4-1.4 0-4.3 0.6-6.5 1.3zm-6.2 10.8c2.6-1.9 4.2-2.3 8.8-2 4.2 0.2 6.6 1 9.8 3.3 2.4 1.7 6.1 5.7 8.3 9 2.1 3.3 4.8 8.5 6 11.5 1.2 3.1 2.1 8.1 2.2 11.5 0.1 4.8-0.4 6.8-2.4 9.9-1.4 2.2-3.9 4.5-5.8 5.3-1.7 0.7-4.6 1.3-6.2 1.3-1.7 0-4.9-0.8-7.3-1.8-2.3-1.1-6.1-4.1-8.5-6.8-2.4-2.7-5.8-7.8-7.5-11.4-2.4-5-3.2-8.2-3.5-14-0.3-5.7-0.1-8.2 1.2-10.5 0.9-1.6 3.1-4 4.9-5.3zm-266.5 22.6c-4.7 6.4-13.1 17.4-18.7 24.5-7.4 9.4-10.8 12.9-12.9 13.3-1.5 0.3-3.7 1-5 1.5-1.2 0.5-2.2 1.4-2.2 1.9 0 0.6 4.6 2.8 10.2 4.9 5.7 2.1 10.7 3.6 11.1 3.2 0.4-0.3 0-2.2-0.9-4.1-1.7-3.4-1.7-3.6 1.2-9.4 1.6-3.2 3.2-6 3.6-6.2 0.5-0.2 5.1 1.1 10.3 2.9l9.4 3.2c1.1 10.3 0.9 13.6 0.4 14.5-0.6 0.8-1.9 1.7-2.9 1.8-1 0.2-2.4 0.8-2.9 1.3q-1 1 0.5 1.9c0.8 0.6 5.7 2.4 10.7 4 5.1 1.7 10.4 3 11.8 3 1.4 0 2.5-0.2 2.5-0.5 0-0.3-0.9-2.2-1.9-4.2-1.7-3.2-2.3-8-3.6-29.8-0.8-14.3-1.7-28.1-2-30.7-0.4-4-1-5-3.3-6.2-1.5-0.7-3.6-1.6-4.8-2-1.7-0.5-3.4 1.3-10.6 11.2zm1.5 9.5c1.7-1.8 3.4-3.3 3.8-3.3 0.5 0 1.1 2.8 1.4 6.3 0.3 3.4 0.5 8.6 0.5 11.5 0 2.8-0.5 5.2-1 5.2-0.6 0-3.9-1.3-7.5-3-3.6-1.6-6.5-3.3-6.5-3.7 0-0.5 1.4-2.8 3.1-5.3 1.7-2.5 4.5-6 6.2-7.7zm213.2-17.6c-1.1 0.2-8 2.3-15.4 4.6-7.4 2.3-13.7 4.8-14 5.5-0.3 0.8 0.1 1.8 0.9 2.3 0.8 0.5 2.4 0.9 3.5 0.9 1.1 0 2.6 0.4 3.3 0.8 0.7 0.4 2.8 6.1 4.7 12.7 2 6.6 4.9 17.3 6.5 23.8 1.7 6.4 2.7 12.3 2.3 13-0.4 0.6-1.5 1.8-2.5 2.5-1 0.6-1.8 1.9-1.8 2.7 0 0.8 0.6 1.8 1.2 2.1 0.7 0.3 6.7-0.9 13.3-2.7 6.6-1.8 12.6-3.7 13.3-4.3 1-0.9 1-1.3 0-2.4-0.7-0.7-2.4-1.3-3.8-1.3-1.4 0.1-3.1-0.3-3.7-0.7-0.7-0.4-2.2-3.8-3.3-7.7-1.1-3.8-2-7.7-2-8.5 0-1 1.8-1.9 5.2-2.8 2.9-0.7 7.1-2.6 9.3-4.3 2.2-1.6 5.3-4.9 6.8-7.2 1.5-2.3 3-5.5 3.3-7.2 0.4-1.7-0.1-5.3-1.2-8.5-1.1-3.3-3.2-6.9-5.3-9-2.1-2.1-5.1-3.9-7.1-4.3-1.9-0.4-5.3-0.7-7.5-0.6-2.2 0.1-4.9 0.3-6 0.6zm-6.1 8.6c0.3-0.8 2.5-1.3 5.8-1.3 4.7 0.1 5.7 0.5 8.5 3.5 1.8 1.9 3.7 5.2 4.3 7.3 0.5 2 1 4.9 1 6.5 0 1.5-0.6 3.9-1.3 5.3-0.6 1.5-2.9 3.5-5 4.5-2 1.1-4.6 1.9-5.7 1.9-1.7 0-2.4-1.7-5.1-13.2-1.6-7.3-2.8-13.9-2.5-14.5zm-147.4 3c-2.5 0.7-6.3 2.4-8.4 3.7-2.2 1.4-5.5 4.3-7.3 6.5-1.9 2.2-4.6 6.5-6.1 9.5-2.2 4.7-2.6 6.8-2.6 14 0 6.9 0.4 9.4 2.4 13.5 1.3 2.8 4.4 6.9 6.7 9.3 2.4 2.3 6.7 5.3 9.5 6.6 2.9 1.4 7.8 2.7 10.8 3.1 3 0.4 9.1 0.2 13.5-0.4 5.2-0.7 8.6-1.7 9.7-2.8 1.2-1.2 2.2-4.8 2.9-10.3 1.1-7.8 1.5-8.8 4.8-11.8 3-2.7 3.3-3.4 2.1-4.2-0.8-0.5-5.1-1.2-9.5-1.5-4.4-0.4-10.2-0.5-12.9-0.3-2.9 0.2-5.1 0.8-5.3 1.6-0.2 0.7 1.4 1.7 3.7 2.5 3.6 1.1 4 1.6 4 4.2 0 1.7-0.3 5.8-0.7 9.3l-0.8 6.2c-9.7 0-13.7-0.6-15.3-1.4-1.5-0.7-4.3-3.7-6.2-6.7l-3.5-5.4c0-23.5 0.1-24.2 3-29.4 1.7-3 4.3-6.4 5.8-7.5 2-1.5 4.7-2.2 9-2.4 4.9-0.3 7.1 0.1 10.7 2 2.9 1.5 5.6 4 7.5 6.9 1.6 2.5 3.5 5.5 4.1 6.5 1 1.7 1.3 1.7 2.8 0.4 1.4-1.2 1.7-2.9 1.4-8.9-0.2-5.3-0.7-7.6-1.8-8.2-0.8-0.4-5.8-1.9-11-3.3-5.2-1.4-11.5-2.6-14-2.5-2.5 0-6.5 0.6-9 1.2z"/>
	</g>
</svg>